# xmcd
#
# Track frame offsets: 
#        150
#        12007
#        27114
#        48378
#        62547
#        82971
#        97349
#        111367
#        124963
#        134413
#
# Disc length: 2144 seconds
#
# Revision: 0
# Processed by: cddbd v1.5.2PL0 Copyright (c) Steve Scherf et al.
# Submitted via: ExactAudioCopy v0.99pb4
#
DISCID=82085e0a
DTITLE=Neil Hamburger - Neil Hamburger Sings Country Winners
DYEAR=2008
DGENRE=Comedy
TTITLE0=Three Piece Chicken Dinner
TTITLE1=The Recycle Bin
TTITLE2=Please Ask That Clown to Stop Crying
TTITLE3=Jug Town
TTITLE4=How Can I Still Be Patriotic (When They've Taken Away My Right
TTITLE4=to Cry?)
TTITLE5=At Least I Was Paid
TTITLE6=Thinkin' It Over
TTITLE7=Garden Party II
TTITLE8=Zipper Lips Rides Again
TTITLE9=The Hula Maiden
EXTD=
EXTT0=
EXTT1=
EXTT2=
EXTT3=
EXTT4=
EXTT5=
EXTT6=
EXTT7=
EXTT8=
EXTT9=
PLAYORDER=
